<svg width="20" height="20" viewBox="0 0 25 25" fill="none" xmlns="http://www.w3.org/2000/svg">
<path d="M24.8072 23.8763C24.9307 23.9998 25 24.1672 25 24.3418C25 24.5163 24.9307 24.6838 24.8072 24.8072C24.6838 24.9307 24.5163 25 24.3418 25C24.1672 25 23.9998 24.9307 23.8763 24.8072L12.5 13.4309L1.12369 24.8072C1.00024 24.9307 0.832818 25 0.658241 25C0.483665 25 0.316239 24.9307 0.192795 24.8072C0.0693505 24.6838 3.44132e-09 24.5163 0 24.3418C-3.44132e-09 24.1672 0.0693499 23.9998 0.192794 23.8763L11.5691 12.5L0.192794 1.12369C0.0693499 1.00024 0 0.832818 0 0.658241C0 0.483665 0.0693499 0.316238 0.192794 0.192794C0.316238 0.0693499 0.483665 0 0.658241 0C0.832818 0 1.00024 0.0693499 1.12369 0.192794L12.5 11.5691L23.8763 0.192794C23.9374 0.131671 24.01 0.0831851 24.0899 0.0501053C24.1697 0.0170256 24.2553 1.70397e-09 24.3418 0C24.4282 -1.70397e-09 24.5138 0.0170256 24.5937 0.0501053C24.6735 0.0831851 24.7461 0.131671 24.8072 0.192794C24.8683 0.253917 24.9168 0.326482 24.9499 0.406343C24.983 0.486205 25 0.5718 25 0.658241C25 0.744683 24.983 0.830278 24.9499 0.910139C24.9168 0.990001 24.8683 1.06257 24.8072 1.12369L13.4309 12.5L24.8072 23.8763Z" fill="white"/>
</svg>
